<mxfile host="Electron" modified="2024-03-19T06:17:55.916Z" agent="Mozilla/5.0 (Windows NT 10.0; Win64; x64) AppleWebKit/537.36 (KHTML, like Gecko) draw.io/24.0.4 Chrome/120.0.6099.109 Electron/28.1.0 Safari/537.36" etag="HnPqRphh4D4iO0yr0gaJ" version="24.0.4" type="device">
  <diagram name="Page-1" id="G5DH12w9WmTqOkHmOCy7">
    <mxGraphModel dx="1953" dy="794" grid="1" gridSize="10" guides="1" tooltips="1" connect="1" arrows="1" fold="1" page="1" pageScale="1" pageWidth="850" pageHeight="1100" math="0" shadow="0">
      <root>
        <mxCell id="0" />
        <mxCell id="1" parent="0" />
        <mxCell id="Z7uUhoI0-oeG4kcW3r7a-1" value="ContextCalc&lt;div&gt;(stateless)&lt;/div&gt;" style="rounded=1;whiteSpace=wrap;html=1;absoluteArcSize=1;arcSize=14;strokeWidth=2;" parent="1" vertex="1">
          <mxGeometry x="690" y="745" width="120" height="50" as="geometry" />
        </mxCell>
        <mxCell id="Z7uUhoI0-oeG4kcW3r7a-2" value="&lt;div&gt;&lt;span style=&quot;background-color: initial;&quot;&gt;Trade&lt;/span&gt;&lt;span style=&quot;background-color: initial;&quot;&gt;Calc&lt;/span&gt;&lt;/div&gt;&lt;div&gt;(stateless)&lt;/div&gt;" style="rounded=1;whiteSpace=wrap;html=1;absoluteArcSize=1;arcSize=14;strokeWidth=2;fillColor=none;strokeColor=#009900;" parent="1" vertex="1">
          <mxGeometry x="40" y="420" width="110" height="40" as="geometry" />
        </mxCell>
        <mxCell id="Z7uUhoI0-oeG4kcW3r7a-8" value="UI/Robot (stateful)&lt;div&gt;ITrader&lt;/div&gt;" style="rounded=1;whiteSpace=wrap;html=1;absoluteArcSize=1;arcSize=14;strokeWidth=2;" parent="1" vertex="1">
          <mxGeometry x="320" y="420" width="120" height="40" as="geometry" />
        </mxCell>
        <mxCell id="Z7uUhoI0-oeG4kcW3r7a-18" value="" style="edgeStyle=orthogonalEdgeStyle;rounded=0;orthogonalLoop=1;jettySize=auto;html=1;startArrow=none;startFill=0;endArrow=classic;endFill=1;" parent="1" source="Z7uUhoI0-oeG4kcW3r7a-16" target="Z7uUhoI0-oeG4kcW3r7a-8" edge="1">
          <mxGeometry relative="1" as="geometry" />
        </mxCell>
        <mxCell id="Z7uUhoI0-oeG4kcW3r7a-62" value="Разрешение/запрещение&lt;div&gt;торговли&lt;/div&gt;&lt;div&gt;(запрос/подписка)&lt;/div&gt;" style="edgeLabel;html=1;align=center;verticalAlign=middle;resizable=0;points=[];" parent="Z7uUhoI0-oeG4kcW3r7a-18" vertex="1" connectable="0">
          <mxGeometry y="-1" relative="1" as="geometry">
            <mxPoint as="offset" />
          </mxGeometry>
        </mxCell>
        <mxCell id="Z7uUhoI0-oeG4kcW3r7a-28" value="" style="edgeStyle=orthogonalEdgeStyle;rounded=0;orthogonalLoop=1;jettySize=auto;html=1;entryX=1;entryY=0.5;entryDx=0;entryDy=0;exitX=0.5;exitY=1;exitDx=0;exitDy=0;startArrow=classic;startFill=1;endArrow=none;endFill=0;" parent="1" source="Z7uUhoI0-oeG4kcW3r7a-16" target="Z7uUhoI0-oeG4kcW3r7a-25" edge="1">
          <mxGeometry relative="1" as="geometry">
            <mxPoint x="580" y="470" as="sourcePoint" />
            <mxPoint x="245" y="750" as="targetPoint" />
            <Array as="points">
              <mxPoint x="710" y="480" />
              <mxPoint x="460" y="480" />
              <mxPoint x="460" y="770" />
            </Array>
          </mxGeometry>
        </mxCell>
        <mxCell id="Z7uUhoI0-oeG4kcW3r7a-16" value="RiskCalc&lt;div&gt;&lt;div&gt;(stateless)&lt;/div&gt;&lt;/div&gt;" style="rounded=1;whiteSpace=wrap;html=1;absoluteArcSize=1;arcSize=14;strokeWidth=2;" parent="1" vertex="1">
          <mxGeometry x="650" y="410" width="120" height="50" as="geometry" />
        </mxCell>
        <mxCell id="Z7uUhoI0-oeG4kcW3r7a-22" value="" style="endArrow=classic;html=1;rounded=0;entryX=1;entryY=0.5;entryDx=0;entryDy=0;endFill=1;startArrow=classic;startFill=1;exitX=0;exitY=0.5;exitDx=0;exitDy=0;exitPerimeter=0;" parent="1" source="Z7uUhoI0-oeG4kcW3r7a-8" target="Z7uUhoI0-oeG4kcW3r7a-2" edge="1">
          <mxGeometry width="50" height="50" relative="1" as="geometry">
            <mxPoint x="250" y="410" as="sourcePoint" />
            <mxPoint x="320" y="340" as="targetPoint" />
            <Array as="points" />
          </mxGeometry>
        </mxCell>
        <mxCell id="Z7uUhoI0-oeG4kcW3r7a-50" value="" style="edgeStyle=orthogonalEdgeStyle;rounded=0;orthogonalLoop=1;jettySize=auto;html=1;startArrow=classic;startFill=1;" parent="1" source="Z7uUhoI0-oeG4kcW3r7a-25" target="Z7uUhoI0-oeG4kcW3r7a-8" edge="1">
          <mxGeometry relative="1" as="geometry" />
        </mxCell>
        <mxCell id="Z7uUhoI0-oeG4kcW3r7a-53" value="" style="edgeStyle=orthogonalEdgeStyle;rounded=0;orthogonalLoop=1;jettySize=auto;html=1;startArrow=classic;startFill=1;" parent="1" source="Z7uUhoI0-oeG4kcW3r7a-25" target="Z7uUhoI0-oeG4kcW3r7a-44" edge="1">
          <mxGeometry relative="1" as="geometry" />
        </mxCell>
        <mxCell id="Z7uUhoI0-oeG4kcW3r7a-25" value="Broker&lt;div&gt;(stateful)&lt;/div&gt;" style="rounded=1;whiteSpace=wrap;html=1;absoluteArcSize=1;arcSize=14;strokeWidth=2;" parent="1" vertex="1">
          <mxGeometry x="320" y="750" width="120" height="40" as="geometry" />
        </mxCell>
        <mxCell id="Z7uUhoI0-oeG4kcW3r7a-38" value="DB" style="shape=cylinder3;whiteSpace=wrap;html=1;boundedLbl=1;backgroundOutline=1;size=15;" parent="1" vertex="1">
          <mxGeometry x="-20" y="870" width="60" height="80" as="geometry" />
        </mxCell>
        <mxCell id="Z7uUhoI0-oeG4kcW3r7a-44" value="IBKR adapter" style="whiteSpace=wrap;html=1;rounded=1;arcSize=14;strokeWidth=2;" parent="1" vertex="1">
          <mxGeometry x="240" y="895" width="120" height="40" as="geometry" />
        </mxCell>
        <mxCell id="Z7uUhoI0-oeG4kcW3r7a-52" value="" style="endArrow=classic;startArrow=classic;html=1;rounded=0;entryX=0;entryY=1;entryDx=0;entryDy=0;exitX=0.5;exitY=0;exitDx=0;exitDy=0;exitPerimeter=0;" parent="1" source="Z7uUhoI0-oeG4kcW3r7a-38" target="Z7uUhoI0-oeG4kcW3r7a-25" edge="1">
          <mxGeometry width="50" height="50" relative="1" as="geometry">
            <mxPoint x="60" y="805" as="sourcePoint" />
            <mxPoint x="110" y="755" as="targetPoint" />
          </mxGeometry>
        </mxCell>
        <mxCell id="Z7uUhoI0-oeG4kcW3r7a-76" value="Ордера, позции, трейды, бары" style="edgeLabel;html=1;align=center;verticalAlign=middle;resizable=0;points=[];" parent="Z7uUhoI0-oeG4kcW3r7a-52" vertex="1" connectable="0">
          <mxGeometry x="-0.0946" y="2" relative="1" as="geometry">
            <mxPoint as="offset" />
          </mxGeometry>
        </mxCell>
        <mxCell id="Z7uUhoI0-oeG4kcW3r7a-60" value="Отправка ордеров" style="text;html=1;align=center;verticalAlign=middle;whiteSpace=wrap;rounded=0;" parent="1" vertex="1">
          <mxGeometry x="395" y="530" width="60" height="30" as="geometry" />
        </mxCell>
        <mxCell id="Z7uUhoI0-oeG4kcW3r7a-61" value="&lt;div&gt;Позиции и P/L,&lt;/div&gt;&lt;div&gt;исполнение&lt;/div&gt;&lt;div&gt;ордеров&lt;/div&gt;&lt;div&gt;(запрос/подписка)&lt;/div&gt;" style="text;html=1;align=center;verticalAlign=middle;whiteSpace=wrap;rounded=0;" parent="1" vertex="1">
          <mxGeometry x="230" y="580" width="140" height="70" as="geometry" />
        </mxCell>
        <mxCell id="Z7uUhoI0-oeG4kcW3r7a-63" value="" style="shape=flexArrow;endArrow=classic;html=1;rounded=0;" parent="1" edge="1">
          <mxGeometry width="50" height="50" relative="1" as="geometry">
            <mxPoint x="324.5" y="575" as="sourcePoint" />
            <mxPoint x="324.5" y="515" as="targetPoint" />
          </mxGeometry>
        </mxCell>
        <mxCell id="Z7uUhoI0-oeG4kcW3r7a-64" value="" style="shape=flexArrow;endArrow=classic;html=1;rounded=0;" parent="1" edge="1">
          <mxGeometry width="50" height="50" relative="1" as="geometry">
            <mxPoint x="424" y="570" as="sourcePoint" />
            <mxPoint x="424" y="640" as="targetPoint" />
          </mxGeometry>
        </mxCell>
        <mxCell id="Z7uUhoI0-oeG4kcW3r7a-67" value="Трейды и&lt;div&gt;позиции&lt;/div&gt;&lt;div&gt;(запрос/подписка)&lt;/div&gt;" style="text;html=1;align=center;verticalAlign=middle;whiteSpace=wrap;rounded=0;" parent="1" vertex="1">
          <mxGeometry x="475" y="650" width="120" height="30" as="geometry" />
        </mxCell>
        <mxCell id="Z7uUhoI0-oeG4kcW3r7a-68" value="" style="shape=flexArrow;endArrow=classic;html=1;rounded=0;width=18;endSize=8.33;" parent="1" edge="1">
          <mxGeometry width="50" height="50" relative="1" as="geometry">
            <mxPoint x="534.5" y="620" as="sourcePoint" />
            <mxPoint x="534.5" y="560" as="targetPoint" />
          </mxGeometry>
        </mxCell>
        <mxCell id="Z7uUhoI0-oeG4kcW3r7a-69" value="цель, направление, запас хода, тех.стоп" style="text;html=1;align=center;verticalAlign=middle;whiteSpace=wrap;rounded=0;" parent="1" vertex="1">
          <mxGeometry x="180" y="370" width="130" height="30" as="geometry" />
        </mxCell>
        <mxCell id="Z7uUhoI0-oeG4kcW3r7a-70" value="" style="shape=flexArrow;endArrow=classic;html=1;rounded=0;" parent="1" edge="1">
          <mxGeometry width="50" height="50" relative="1" as="geometry">
            <mxPoint x="280" y="419" as="sourcePoint" />
            <mxPoint x="210" y="419" as="targetPoint" />
          </mxGeometry>
        </mxCell>
        <mxCell id="Z7uUhoI0-oeG4kcW3r7a-71" value="Параметры трейда" style="text;html=1;align=center;verticalAlign=middle;whiteSpace=wrap;rounded=0;" parent="1" vertex="1">
          <mxGeometry x="190" y="470" width="110" height="30" as="geometry" />
        </mxCell>
        <mxCell id="Z7uUhoI0-oeG4kcW3r7a-72" value="" style="shape=flexArrow;endArrow=classic;html=1;rounded=0;width=8;endSize=7.67;" parent="1" edge="1">
          <mxGeometry width="50" height="50" relative="1" as="geometry">
            <mxPoint x="210" y="460" as="sourcePoint" />
            <mxPoint x="280" y="460" as="targetPoint" />
            <Array as="points">
              <mxPoint x="230" y="460" />
            </Array>
          </mxGeometry>
        </mxCell>
        <mxCell id="Z7uUhoI0-oeG4kcW3r7a-74" value="" style="edgeStyle=orthogonalEdgeStyle;rounded=0;orthogonalLoop=1;jettySize=auto;html=1;startArrow=classic;startFill=1;" parent="1" source="Z7uUhoI0-oeG4kcW3r7a-73" target="Z7uUhoI0-oeG4kcW3r7a-25" edge="1">
          <mxGeometry relative="1" as="geometry" />
        </mxCell>
        <mxCell id="Z7uUhoI0-oeG4kcW3r7a-73" value="Binance adapter" style="whiteSpace=wrap;html=1;rounded=1;arcSize=14;strokeWidth=2;" parent="1" vertex="1">
          <mxGeometry x="395" y="895" width="120" height="40" as="geometry" />
        </mxCell>
        <mxCell id="Z7uUhoI0-oeG4kcW3r7a-77" value="По инструменту:&lt;div&gt;Цена, спред, бары, high, low&lt;/div&gt;&lt;div&gt;(запрос/подписка)&lt;/div&gt;" style="text;html=1;align=center;verticalAlign=middle;whiteSpace=wrap;rounded=0;" parent="1" vertex="1">
          <mxGeometry x="515" y="820" width="160" height="30" as="geometry" />
        </mxCell>
        <mxCell id="Z7uUhoI0-oeG4kcW3r7a-93" value="Данные контекста" style="text;html=1;align=center;verticalAlign=middle;whiteSpace=wrap;rounded=0;" parent="1" vertex="1">
          <mxGeometry x="140" y="600" width="60" height="30" as="geometry" />
        </mxCell>
        <mxCell id="Z7uUhoI0-oeG4kcW3r7a-95" value="" style="shape=flexArrow;endArrow=classic;html=1;rounded=0;" parent="1" edge="1">
          <mxGeometry width="50" height="50" relative="1" as="geometry">
            <mxPoint x="625" y="749" as="sourcePoint" />
            <mxPoint x="555" y="749" as="targetPoint" />
          </mxGeometry>
        </mxCell>
        <mxCell id="Z7uUhoI0-oeG4kcW3r7a-98" value="Все данные - неизменяемые, но могут&lt;div&gt;создавать новый экземпляр на базе&lt;/div&gt;&lt;div&gt;предыдущего&lt;/div&gt;" style="text;html=1;align=center;verticalAlign=middle;whiteSpace=wrap;rounded=0;" parent="1" vertex="1">
          <mxGeometry x="550" y="240" width="240" height="30" as="geometry" />
        </mxCell>
        <mxCell id="Z7uUhoI0-oeG4kcW3r7a-99" value="По инструменту:&lt;div&gt;Цена, спред, бары, high, low, зона, ATR, Fibo&lt;/div&gt;" style="text;html=1;align=center;verticalAlign=middle;whiteSpace=wrap;rounded=0;" parent="1" vertex="1">
          <mxGeometry x="455" y="160" width="160" height="30" as="geometry" />
        </mxCell>
        <mxCell id="7dwjAZASNVriuCss6YmI-2" value="" style="shape=flexArrow;endArrow=classic;html=1;rounded=0;" parent="1" edge="1">
          <mxGeometry width="50" height="50" relative="1" as="geometry">
            <mxPoint x="545" y="795" as="sourcePoint" />
            <mxPoint x="645" y="795" as="targetPoint" />
          </mxGeometry>
        </mxCell>
        <mxCell id="7dwjAZASNVriuCss6YmI-3" value="" style="endArrow=classic;startArrow=classic;html=1;rounded=0;entryX=0;entryY=0.5;entryDx=0;entryDy=0;exitX=1;exitY=0.5;exitDx=0;exitDy=0;" parent="1" source="Z7uUhoI0-oeG4kcW3r7a-25" target="Z7uUhoI0-oeG4kcW3r7a-1" edge="1">
          <mxGeometry width="50" height="50" relative="1" as="geometry">
            <mxPoint x="340" y="630" as="sourcePoint" />
            <mxPoint x="390" y="580" as="targetPoint" />
          </mxGeometry>
        </mxCell>
        <mxCell id="7dwjAZASNVriuCss6YmI-4" value="Данные контекста" style="text;html=1;align=center;verticalAlign=middle;whiteSpace=wrap;rounded=0;" parent="1" vertex="1">
          <mxGeometry x="580" y="700" width="60" height="30" as="geometry" />
        </mxCell>
        <mxCell id="7dwjAZASNVriuCss6YmI-5" value="" style="shape=flexArrow;endArrow=classic;html=1;rounded=0;" parent="1" edge="1">
          <mxGeometry width="50" height="50" relative="1" as="geometry">
            <mxPoint x="220" y="645" as="sourcePoint" />
            <mxPoint x="220" y="585" as="targetPoint" />
          </mxGeometry>
        </mxCell>
      </root>
    </mxGraphModel>
  </diagram>
</mxfile>
